<?xml version="1.0" standalone="no"?><!DOCTYPE svg PUBLIC "-//W3C//DTD SVG 1.1//EN" "http://www.w3.org/Graphics/SVG/1.1/DTD/svg11.dtd"><svg width="100%" height="100%" viewBox="0 0 36 25" version="1.1" xmlns="http://www.w3.org/2000/svg" xmlns:xlink="http://www.w3.org/1999/xlink" xml:space="preserve" style="fill-rule:evenodd;clip-rule:evenodd;stroke-linejoin:round;stroke-miterlimit:1.41421;"><g><path d="M34.135,1.686c0,-0.773 -0.628,-1.4 -1.401,-1.4c-5.421,0 -24.987,0 -30.407,0c-0.774,0 -1.401,0.627 -1.401,1.4c0,4.299 0,17.268 0,21.566c0,0.774 0.627,1.401 1.401,1.401c5.42,0 24.986,0 30.407,0c0.773,0 1.401,-0.627 1.401,-1.401c0,-4.298 0,-17.267 0,-21.566ZM32.776,2.98c0,-0.774 -0.627,-1.401 -1.401,-1.401c-5.093,0 -22.591,0 -27.684,0c-0.773,0 -1.401,0.627 -1.401,1.401c0,3.934 0,15.05 0,18.984c0,0.774 0.628,1.401 1.401,1.401c5.093,0 22.591,0 27.684,0c0.774,0 1.401,-0.627 1.401,-1.401c0,-3.934 0,-15.05 0,-18.984Z" style="fill:#fff;"/><g><clipPath id="_clip1"><rect x="3.052" y="2.361" width="28.882" height="20.27"/></clipPath><g clip-path="url(#_clip1)"><path d="M9.845,22.631l-9.148,0l9.486,-12.177l4.574,5.871l-4.912,6.306Z" style="fill:#fff;"/><path d="M22.894,7.551l11.748,15.08l-23.495,0l11.747,-15.08Z" style="fill:#fff;"/><circle cx="7.314" cy="4.49" r="3.061" style="fill:#df4848;"/></g></g></g></svg>