<?xml version="1.0" standalone="no"?><!DOCTYPE svg PUBLIC "-//W3C//DTD SVG 1.1//EN" "http://www.w3.org/Graphics/SVG/1.1/DTD/svg11.dtd"><svg id="refreshPreviewBtn" width="100%" height="100%" viewBox="0 0 32 31" version="1.1" xmlns="http://www.w3.org/2000/svg" xmlns:xlink="http://www.w3.org/1999/xlink" xml:space="preserve" style="fill-rule:evenodd;clip-rule:evenodd;stroke-linejoin:round;stroke-miterlimit:1.41421;"><path d="M22.607,8.701c-1.741,-1.726 -4.136,-2.793 -6.781,-2.793c-5.318,0 -9.629,4.311 -9.629,9.629c0,5.319 4.311,9.63 9.629,9.63c2.659,0 5.066,-1.078 6.809,-2.821l3.899,3.899c-2.741,2.741 -6.526,4.435 -10.708,4.435c-8.363,0 -15.143,-6.779 -15.143,-15.143c0,-8.363 6.78,-15.143 15.143,-15.143c4.167,0 7.941,1.684 10.679,4.408l3.323,-3.323l1.377,11.857l-11.857,-1.377l3.259,-3.258Z" style="fill:#fff;"/></svg>