<?xml version="1.0" standalone="no"?><!DOCTYPE svg PUBLIC "-//W3C//DTD SVG 1.1//EN" "http://www.w3.org/Graphics/SVG/1.1/DTD/svg11.dtd"><svg width="100%" height="100%" viewBox="0 0 285 175" version="1.1" xmlns="http://www.w3.org/2000/svg" xmlns:xlink="http://www.w3.org/1999/xlink" xml:space="preserve" style="fill-rule:evenodd;clip-rule:evenodd;stroke-linejoin:round;stroke-miterlimit:1.41421;"><path d="M213.343,17.955l40.851,0c16.479,0 29.859,13.38 29.859,29.859l0,96.931c0,16.48 -13.38,29.86 -29.859,29.86l-224.326,0c-16.48,0 -29.859,-13.38 -29.859,-29.86l0,-96.931c0,-16.479 13.379,-29.859 29.859,-29.859l40.851,0l0,-3.8c0,-7.4 5.183,-13.407 11.567,-13.407l119.49,0c6.384,0 11.567,6.007 11.567,13.407l0,3.8ZM142.031,40.21c30.291,0 54.884,24.592 54.884,54.884c0,30.292 -24.593,54.885 -54.884,54.885c-30.292,0 -54.885,-24.593 -54.885,-54.885c0,-30.292 24.593,-54.884 54.885,-54.884ZM265.385,46.406c0,-5.28 -4.286,-9.566 -9.566,-9.566l-21.567,0c-5.28,0 -9.566,4.286 -9.566,9.566l0,9.748c0,5.28 4.286,9.567 9.566,9.567l21.567,0c5.28,0 9.566,-4.287 9.566,-9.567l0,-9.748Z" style="fill:#fff;"/></svg>