<?xml version="1.0" standalone="no"?><!DOCTYPE svg PUBLIC "-//W3C//DTD SVG 1.1//EN" "http://www.w3.org/Graphics/SVG/1.1/DTD/svg11.dtd"><svg width="100%" height="100%" viewBox="0 0 14 15" version="1.1" xmlns="http://www.w3.org/2000/svg" xmlns:xlink="http://www.w3.org/1999/xlink" xml:space="preserve" style="fill-rule:evenodd;clip-rule:evenodd;stroke-linejoin:round;stroke-miterlimit:1.41421;"><path d="M2.114,2.558c2.6,-2.599 6.821,-2.599 9.421,0c2.599,2.6 2.599,6.821 0,9.421c-2.6,2.599 -6.821,2.599 -9.421,0c-2.599,-2.6 -2.599,-6.821 0,-9.421ZM4.084,3.09l6.919,6.919c1.273,-1.938 1.058,-4.57 -0.646,-6.273c-1.703,-1.704 -4.335,-1.919 -6.273,-0.646ZM9.565,11.447l-6.919,-6.919c-1.273,1.938 -1.058,4.57 0.646,6.273c1.703,1.704 4.335,1.919 6.273,0.646Z" style="fill:#bb3f3d;"/></svg>