<?xml version="1.0" standalone="no"?><!DOCTYPE svg PUBLIC "-//W3C//DTD SVG 1.1//EN" "http://www.w3.org/Graphics/SVG/1.1/DTD/svg11.dtd"><svg width="100%" height="100%" viewBox="0 0 107 79" version="1.1" xmlns="http://www.w3.org/2000/svg" xmlns:xlink="http://www.w3.org/1999/xlink" xml:space="preserve" style="fill-rule:evenodd;clip-rule:evenodd;stroke-linejoin:round;stroke-miterlimit:1.41421;"><path d="M106.462,29.469c0,-0.859 -0.341,-1.681 -0.947,-2.288c-0.607,-0.607 -1.43,-0.948 -2.288,-0.948c-15.686,0 -83.7,0 -99.306,0c-0.849,0 -1.663,0.337 -2.263,0.937c-0.6,0.601 -0.937,1.414 -0.937,2.263c0,9.368 0,36.667 0,46.081c0,0.858 0.34,1.681 0.947,2.287c0.607,0.607 1.43,0.948 2.288,0.948c15.674,0 83.597,0 99.271,0c0.858,0 1.681,-0.341 2.288,-0.948c0.606,-0.606 0.947,-1.429 0.947,-2.287c0,-9.402 0,-36.644 0,-46.045ZM0.721,19.78c0,0 0,-13.015 0,-17.756c0,-0.451 0.179,-0.884 0.498,-1.203c0.319,-0.319 0.752,-0.498 1.203,-0.498c6.367,0 28.75,0 35.117,0c0.451,0 0.884,0.179 1.203,0.498c0.319,0.319 0.499,0.752 0.499,1.203l-0.053,6.138l60.35,0c0.849,0 1.663,0.338 2.263,0.938c0.6,0.6 0.937,1.414 0.937,2.262c0,3.44 0,8.418 0,8.418l-102.017,0Z" style="fill:#fff;"/></svg>